<?xml version="1.0" encoding="UTF-8"?>
<svg width="94px" height="94px" viewBox="0 0 94 94" version="1.1" xmlns="http://www.w3.org/2000/svg" xmlns:xlink="http://www.w3.org/1999/xlink">
    <title>53AEEFB8-6CFC-4531-A544-6348B93BCAEC</title>
    <defs>
        <filter id="filter-1">
            <feColorMatrix in="SourceGraphic" type="matrix" values="0 0 0 0 0.066667 0 0 0 0 0.717647 0 0 0 0 0.098039 0 0 0 1.000000 0"></feColorMatrix>
        </filter>
    </defs>
    <g id="BPOP---HU---Administrar-perfiles-[Web-1280]" stroke="none" stroke-width="1" fill="none" fill-rule="evenodd">
        <g id="checkmark-circle" transform="translate(-616.000000, -352.000000)" filter="url(#filter-1)">
            <g transform="translate(616.000000, 352.000000)">
                <path d="M47,94 C21.0426168,94 0,72.9573833 0,47 C0,21.0426168 21.0426168,0 47,0 C72.9573833,0 94,21.0426168 94,47 C94,72.9573833 72.9573833,94 47,94 Z M47,89.3 C70.3616447,89.3 89.3,70.3616447 89.3,47 C89.3,23.6383551 70.3616447,4.7 47,4.7 C23.6383551,4.7 4.7,23.6383551 4.7,47 C4.7,70.3616447 23.6383551,89.3 47,89.3 Z M61.788299,33.5882991 C62.7060314,32.670567 64.1939686,32.670567 65.111701,33.5882991 C66.0294328,34.5060312 66.0294328,35.9939688 65.111701,36.9117009 L41.611701,60.411701 C40.6939686,61.3294329 39.2060314,61.3294329 38.288299,60.411701 L28.8882991,51.011701 C27.970567,50.0939686 27.970567,48.6060314 28.8882991,47.688299 C29.8060312,46.7705672 31.2939688,46.7705672 32.2117009,47.688299 L39.95,55.426598 L61.788299,33.5882991 Z" id="Shape" fill="#000000" fill-rule="nonzero"></path>
            </g>
        </g>
    </g>
</svg>