<?xml version="1.0" encoding="UTF-8"?>
<svg width="36px" height="36px" viewBox="0 0 36 36" version="1.1" xmlns="http://www.w3.org/2000/svg" xmlns:xlink="http://www.w3.org/1999/xlink">
    <title>82D8816D-1ACF-46E1-AFA1-7C669D985718</title>
    <defs>
        <filter id="filter-1">
            <feColorMatrix in="SourceGraphic" type="matrix" values="0 0 0 0 0.000000 0 0 0 0 0.521569 0 0 0 0 0.000000 0 0 0 1.000000 0"></feColorMatrix>
        </filter>
    </defs>
    <g id="BPOP---HU---Consultar-usuario-[Web-1280]" stroke="none" stroke-width="1" fill="none" fill-rule="evenodd" stroke-linecap="round" stroke-linejoin="round">
        <g id="Group" transform="translate(-397.000000, -257.000000)" filter="url(#filter-1)">
            <g transform="translate(398.000000, 258.000000)" id="face-id-4" stroke="#000000">
                <path d="M0,8.94736842 L0,4.47368421 C0,2.00293665 2.00293665,0 4.47368421,0 L8.94736842,0" id="Shape"></path>
                <path d="M34,8.94736842 L34,4.47368421 C34,2.00293665 31.9970634,0 29.5263158,0 L25.0526316,0" id="Shape"></path>
                <path d="M0,25.0526316 L0,29.5263158 C0,31.9970634 2.00293665,34 4.47368421,34 L8.94736842,34" id="Shape"></path>
                <path d="M34,25.0526316 L34,29.5263158 C34,31.9970634 31.9970634,34 29.5263158,34 L25.0526316,34" id="Shape"></path>
                <path d="M5.07017544,27.4385965 C7.60358866,25.9803428 10.2984601,24.8179608 13.1010348,23.9746365 C14.3428285,23.5180772 14.4778384,20.6918276 13.5876637,19.7183252 C12.3028448,18.3162462 11.2138645,16.6711598 11.2138645,12.7005662 C11.0624816,11.1004551 11.6091605,9.51266299 12.7154665,8.33926396 C13.8217725,7.16586492 15.3816159,6.51938272 17,6.56352494 C18.6183841,6.51938272 20.1782275,7.16586492 21.2845335,8.33926396 C22.3908395,9.51266299 22.9375184,11.1004551 22.7861355,12.7005662 C22.7861355,16.6770509 21.6971552,18.3162462 20.4123363,19.7183252 C19.5221616,20.6918276 19.6571715,23.5180772 20.8989652,23.9746365 C23.7015399,24.8179608 26.3964113,25.9803428 28.9298246,27.4385965" id="Shape"></path>
            </g>
        </g>
    </g>
</svg>