<?xml version="1.0" encoding="UTF-8"?>
<svg width="37px" height="40px" viewBox="0 0 37 40" version="1.1" xmlns="http://www.w3.org/2000/svg" xmlns:xlink="http://www.w3.org/1999/xlink">
    <title>180C8599-9C87-4FDB-B2F4-B3821C83596E</title>
    <g id="BPOP---HU---Consultar-usuario-[Web-1280]" stroke="none" stroke-width="1" fill="none" fill-rule="evenodd">
        <g id="BPOP---HU---Consultar-usuario-[Web-1280]-1.0" transform="translate(-75.000000, -398.000000)" fill="#7B7B7B" fill-rule="nonzero">
            <g id="cog" transform="translate(75.000000, 398.000000)">
                <path d="M28.8130688,7.81851652 L31.7743217,7.21122222 C33.0366501,6.95234368 34.3226485,7.53202438 34.9668924,8.65031538 L36.5219903,11.3496846 C37.1662341,12.4679756 37.0241632,13.8739466 36.1692903,14.8400945 L34.1658321,17.104334 C34.3389594,18.053064 34.4268003,19.0210732 34.4268003,20 C34.4268003,20.9789268 34.3389594,21.946936 34.1658321,22.895666 L36.1692903,25.1599056 C37.0241632,26.1260534 37.1662341,27.5320244 36.5219903,28.6503154 L34.9668924,31.3496846 C34.3226485,32.4679756 33.0366501,33.0476564 31.7743217,32.7887778 L28.8130688,32.1814834 C27.3366678,33.4427438 25.6425628,34.4268202 23.8108266,35.0794954 L22.856507,37.9486832 C22.4490516,39.1737098 21.305124,40 20.0166364,40 L16.9064405,40 C15.6179529,40 14.4740253,39.1737098 14.0665698,37.9486832 L13.1122503,35.0794954 C11.2805142,34.4268202 9.58640914,33.4427438 8.1100082,32.1814834 L5.14875523,32.7887778 C3.88642682,33.0476564 2.60042833,32.4679756 1.9561845,31.3496846 L0.401086611,28.6503154 C-0.243157206,27.5320244 -0.101086232,26.1260534 0.753786625,25.1599056 L2.75724484,22.895666 C2.5841176,21.946936 2.49627663,20.9789268 2.49627663,20 C2.49627663,19.0210732 2.5841176,18.053064 2.75724484,17.104334 L0.753786625,14.8400945 C-0.101086232,13.8739466 -0.243157206,12.4679756 0.401086611,11.3496846 L1.9561845,8.65031538 C2.60042833,7.53202438 3.88642682,6.95234368 5.14875523,7.21122222 L8.1100082,7.81851652 C9.58640914,6.5572563 11.2805142,5.57317972 13.1122503,4.92050466 L14.0665698,2.0513167 C14.4740253,0.82629028 15.6179529,0 16.9064405,0 L20.0166364,0 C21.305124,0 22.4490516,0.82629028 22.856507,2.0513167 L23.8108266,4.92050466 C25.6425628,5.57317972 27.3366678,6.5572563 28.8130688,7.81851652 Z M22.7175344,6.66131354 C22.4141665,6.56418302 22.1752857,6.32776122 22.0745756,6.0249732 L20.9632599,2.68377224 C20.8274414,2.2754301 20.4461323,2 20.0166364,2 L16.9064405,2 C16.4769447,2 16.0956355,2.2754301 15.9598171,2.68377224 L14.8485013,6.0249732 C14.7477913,6.32776122 14.5089104,6.56418302 14.2055426,6.66131354 C12.2979112,7.2720877 10.5472124,8.2898703 9.06762792,9.6379062 C8.83201558,9.85257046 8.50832121,9.94164864 8.19636165,9.8776719 L4.74866503,9.17061766 C4.3278889,9.08432482 3.89922274,9.2775517 3.6844748,9.65031538 L2.12937691,12.3496846 C1.91462896,12.7224483 1.96198595,13.1911053 2.24694357,13.5131546 L4.57930118,16.1491048 C4.79030475,16.3875738 4.87524194,16.712561 4.80797899,17.0240734 C4.59854018,17.9940392 4.49193436,18.9897692 4.49193436,20 C4.49193436,21.0102308 4.59854018,22.0059608 4.80797899,22.9759266 C4.87524194,23.287439 4.79030475,23.6124262 4.57930118,23.8508952 L2.24694357,26.4868454 C1.96198595,26.8088948 1.91462896,27.2775518 2.12937691,27.6503154 L3.6844748,30.3496846 C3.89922274,30.7224482 4.3278889,30.9156752 4.74866503,30.8293824 L8.19636165,30.122328 C8.50832121,30.0583514 8.83201558,30.1474296 9.06762792,30.3620938 C10.5472124,31.7101296 12.2979112,32.7279122 14.2055426,33.3386864 C14.5089104,33.435817 14.7477913,33.6722388 14.8485013,33.9750268 L15.9598171,37.3162278 C16.0956355,37.72457 16.4769447,38 16.9064405,38 L20.0166364,38 C20.4461323,38 20.8274414,37.72457 20.9632599,37.3162278 L22.0745756,33.9750268 C22.1752857,33.6722388 22.4141665,33.435817 22.7175344,33.3386864 C24.6251657,32.7279122 26.3758646,31.7101296 27.8554491,30.3620938 C28.0910614,30.1474296 28.4147557,30.0583514 28.7267153,30.122328 L32.174412,30.8293824 C32.595188,30.9156752 33.0238541,30.7224482 33.2386021,30.3496846 L34.7937,27.6503154 C35.0084479,27.2775518 34.961091,26.8088948 34.6761334,26.4868454 L32.3437757,23.8508952 C32.1327722,23.6124262 32.047835,23.287439 32.1150981,22.9759266 C32.3245367,22.0059608 32.4311426,21.0102308 32.4311426,20 C32.4311426,18.9897692 32.3245367,17.9940392 32.1150981,17.0240734 C32.047835,16.712561 32.1327722,16.3875738 32.3437757,16.1491048 L34.6761334,13.5131546 C34.961091,13.1911053 35.0084479,12.7224483 34.7937,12.3496846 L33.2386021,9.65031538 C33.0238541,9.2775517 32.595188,9.08432482 32.174412,9.17061766 L28.7267153,9.8776719 C28.4147557,9.94164864 28.0910614,9.85257046 27.8554491,9.6379062 C26.3758646,8.2898703 24.6251657,7.2720877 22.7175344,6.66131354 Z M18.4615385,28 C14.0528532,28 10.4789076,24.418278 10.4789076,20 C10.4789076,15.581722 14.0528532,12 18.4615385,12 C22.8702238,12 26.4441694,15.581722 26.4441694,20 C26.4441694,24.418278 22.8702238,28 18.4615385,28 Z M18.4615385,26 C21.7680524,26 24.4485117,23.3137084 24.4485117,20 C24.4485117,16.6862916 21.7680524,14 18.4615385,14 C15.1550246,14 12.4745653,16.6862916 12.4745653,20 C12.4745653,23.3137084 15.1550246,26 18.4615385,26 Z" id="Shape"></path>
            </g>
        </g>
    </g>
</svg>