<?xml version="1.0" encoding="UTF-8"?>
<svg width="41px" height="41px" viewBox="0 0 41 41" version="1.1" xmlns="http://www.w3.org/2000/svg" xmlns:xlink="http://www.w3.org/1999/xlink">
    <title>7AF5B13A-B599-4DB5-8775-77A19BE29BC0</title>
    <defs>
        <filter id="filter-1">
            <feColorMatrix in="SourceGraphic" type="matrix" values="0 0 0 0 0.482353 0 0 0 0 0.482353 0 0 0 0 0.482353 0 0 0 1.000000 0"></feColorMatrix>
        </filter>
    </defs>
    <g id="BPOP---HU---Consultar-usuario-[Web-1280]" stroke="none" stroke-width="1" fill="none" fill-rule="evenodd" stroke-linecap="round" stroke-linejoin="round">
        <g id="BPOP---HU---Consultar-usuario-[Web-1280]-1.0" transform="translate(-69.000000, -310.000000)">
            <g id="Componente-/-Menú-lateral-web" transform="translate(-105.000000, 0.000000)">
                <g id="Group" transform="translate(174.000000, 309.000000)" filter="url(#filter-1)">
                    <g transform="translate(0.000000, 1.000000)" id="task-checklist" stroke="#000000">
                        <path d="M30.75,4.27083333 L34.1666667,4.27083333 C35.1101531,4.27083333 35.875,5.03568022 35.875,5.97916667 L35.875,38.4375 C35.875,39.3809864 35.1101531,40.1458333 34.1666667,40.1458333 L6.83333333,40.1458333 C5.88984689,40.1458333 5.125,39.3809864 5.125,38.4375 L5.125,5.97916667 C5.125,5.03568022 5.88984689,4.27083333 6.83333333,4.27083333 L10.25,4.27083333" id="Shape"></path>
                        <path d="M23.9166667,4.27083333 C23.9166667,2.38386044 22.3869729,0.854166667 20.5,0.854166667 C18.6130271,0.854166667 17.0833333,2.38386044 17.0833333,4.27083333 L13.6666667,4.27083333 L13.6666667,9.39583333 L27.3333333,9.39583333 L27.3333333,4.27083333 L23.9166667,4.27083333 Z" id="Shape"></path>
                        <path d="M13.6666667,7.6875 L9.39583333,7.6875 C8.92409011,7.6875 8.54166667,8.06992344 8.54166667,8.54166667 L8.54166667,35.875 C8.54166667,36.3467432 8.92409011,36.7291667 9.39583333,36.7291667 L25.625,36.7291667 L25.625,30.75 C25.625,30.2782568 26.0074234,29.8958333 26.4791667,29.8958333 L32.4583333,29.8958333 L32.4583333,8.54166667 C32.4583333,8.06992344 32.0759099,7.6875 31.6041667,7.6875 L27.3333333,7.6875" id="Shape"></path>
                        <line x1="32.4549167" y1="29.894125" x2="25.6215833" y2="36.7274583" id="Shape"></line>
                        <line x1="13.6666667" y1="14.519125" x2="27.3333333" y2="14.519125" id="Shape"></line>
                        <line x1="13.6666667" y1="19.644125" x2="27.3333333" y2="19.644125" id="Shape"></line>
                        <line x1="13.6666667" y1="24.769125" x2="21.3541667" y2="24.769125" id="Shape"></line>
                    </g>
                </g>
            </g>
        </g>
    </g>
</svg>