<?xml version="1.0" encoding="UTF-8"?>
<svg width="94px" height="94px" viewBox="0 0 94 94" version="1.1" xmlns="http://www.w3.org/2000/svg" xmlns:xlink="http://www.w3.org/1999/xlink">
    <title>E12389C2-10B7-4B83-921F-3258B8F386FC</title>
    <defs>
        <filter id="filter-1">
            <feColorMatrix in="SourceGraphic" type="matrix" values="0 0 0 0 1 0 0 0 0 0 0 0 0 0 0 0 0 0 1.000000 0"></feColorMatrix>
        </filter>
    </defs>
    <g id="BPOP---HU---Administrar-perfiles-[Web-1280]" stroke="none" stroke-width="1" fill="none" fill-rule="evenodd">
        <g id="exclamation-circle" transform="translate(-616.000000, -352.000000)" filter="url(#filter-1)">
            <g transform="translate(616.000000, 352.000000)">
                <path d="M47,94 C21.0426168,94 0,72.9573834 0,47 C0,21.0426168 21.0426168,0 47,0 C72.9573834,0 94,21.0426168 94,47 C94,72.9573834 72.9573834,94 47,94 Z M47,89.5238095 C70.4852514,89.5238095 89.5238095,70.4852514 89.5238095,47 C89.5238095,23.5147485 70.4852514,4.47619048 47,4.47619048 C23.5147485,4.47619048 4.47619048,23.5147485 4.47619048,47 C4.47619048,70.4852514 23.5147485,89.5238095 47,89.5238095 Z M49.2380952,47 C49.2380952,48.236066 48.236066,49.2380952 47,49.2380952 C45.763934,49.2380952 44.7619048,48.236066 44.7619048,47 L44.7619048,29.0952381 C44.7619048,27.8591722 45.763934,26.8571429 47,26.8571429 C48.236066,26.8571429 49.2380952,27.8591722 49.2380952,29.0952381 L49.2380952,47 Z M44.7619048,58.1904762 L49.2380952,58.1904762 L49.2380952,62.6666667 L44.7619048,62.6666667 L44.7619048,58.1904762 Z" id="Shape" fill="#000000" fill-rule="nonzero"></path>
            </g>
        </g>
    </g>
</svg>