<?xml version="1.0" encoding="UTF-8"?>
<svg width="31px" height="40px" viewBox="0 0 31 40" version="1.1" xmlns="http://www.w3.org/2000/svg" xmlns:xlink="http://www.w3.org/1999/xlink">
    <title>B6977D89-D76E-457C-AF7E-8E645A3FA103</title>
    <g id="BPOP---HU---Consultar-usuario-[Web-1280]" stroke="none" stroke-width="1" fill="none" fill-rule="evenodd">
        <g id="BPOP---HU---Consultar-usuario-[Web-1280]-1.0" transform="translate(-78.000000, -478.000000)" fill="#7B7B7B" fill-rule="nonzero">
            <g id="lock" transform="translate(78.000000, 478.000000)">
                <path d="M25.7648056,15.6854095 C25.6822517,15.7048905 25.5961384,15.7152006 25.5076087,15.7152006 C25.4053323,15.7152006 25.306281,15.7014401 25.2122174,15.6756757 L5.4923913,15.6756757 C3.65004143,15.6756757 2.15652174,17.1640264 2.15652174,19 L2.15652174,34.5135135 C2.15652174,36.3494871 3.65004143,37.8378378 5.4923913,37.8378378 L25.5076087,37.8378378 C27.3499585,37.8378378 28.8434783,36.3494871 28.8434783,34.5135135 L28.8434783,19 C28.8434783,17.2502685 27.4869747,15.8162687 25.7648056,15.6854095 L25.7648056,15.6854095 Z M6.73913043,13.2432432 L24.2608696,13.2432432 L24.2608696,11.027027 C24.2608696,6.13109735 20.3384947,2.16216216 15.5,2.16216216 C10.6615053,2.16216216 6.73913043,6.13109735 6.73913043,11.027027 L6.73913043,13.2432432 Z M26.5714286,13.4444646 C29.0981947,13.9592094 31,16.2011578 31,18.8888889 L31,34.4444444 C31,37.5126931 28.5215764,40 25.4642857,40 L5.53571429,40 C2.47842372,40 0,37.5126931 0,34.4444444 L0,18.8888889 C0,16.2011578 1.90180536,13.9592094 4.42857143,13.4444646 L4.42857143,11.1111111 C4.42857143,4.97461389 9.38541884,0 15.5,0 C21.614581,0 26.5714286,4.97461389 26.5714286,11.1111111 L26.5714286,13.4444646 Z M13.2086957,24.3918919 L13.2086957,25.2435728 C13.2086957,26.7099073 13.5595244,28.156104 14.2333981,29.4676335 L14.8666991,30.7001978 C14.9866374,30.9336282 15.2318097,31.0810811 15.5,31.0810811 C15.7681903,31.0810811 16.0133626,30.9336282 16.1333009,30.7001978 L16.7666019,29.4676335 C17.4404756,28.156104 17.7913043,26.7099073 17.7913043,25.2435728 L17.7913043,24.3918919 C17.7913043,23.1604463 16.7654523,22.1621622 15.5,22.1621622 C14.2345477,22.1621622 13.2086957,23.1604463 13.2086957,24.3918919 Z M11.0521739,24.4144144 C11.0521739,21.9764007 13.0435335,20 15.5,20 C17.9564665,20 19.9478261,21.9764007 19.9478261,24.4144144 L19.9478261,25.2574925 C19.9478261,27.0516737 19.5269323,28.8212146 18.7184772,30.425979 L18.1038028,31.6460931 C17.610679,32.6249323 16.6026586,33.2432432 15.5,33.2432432 C14.3973414,33.2432432 13.389321,32.6249323 12.8961972,31.6460931 L12.2815228,30.425979 C11.4730677,28.8212146 11.0521739,27.0516737 11.0521739,25.2574925 L11.0521739,24.4144144 Z" id="Shape"></path>
            </g>
        </g>
    </g>
</svg>