<?xml version="1.0" encoding="UTF-8"?>
<svg width="34px" height="34px" viewBox="0 0 34 34" version="1.1" xmlns="http://www.w3.org/2000/svg" xmlns:xlink="http://www.w3.org/1999/xlink">
    <title>C7FB5FE1-9E91-45C7-8B57-E230619BF36D</title>
    <defs>
        <filter id="filter-1">
            <feColorMatrix in="SourceGraphic" type="matrix" values="0 0 0 0 1.000000 0 0 0 0 1.000000 0 0 0 0 1.000000 0 0 0 1.000000 0"></feColorMatrix>
        </filter>
    </defs>
    <g id="BPOP---HU---Consultar-usuario-[Web-1280]" stroke="none" stroke-width="1" fill="none" fill-rule="evenodd">
        <g id="logout" transform="translate(-70.000000, -927.000000)" filter="url(#filter-1)">
            <g transform="translate(70.000000, 927.000000)">
                <path d="M23.973708,26.03125 L23.973708,28.6875 C23.973708,31.6168976 21.590501,34 18.6609749,34 L5.31273307,34 C2.38320698,34 0,31.6168976 0,28.6875 L0,5.3125 C0,2.38310243 2.38320698,0 5.31273307,0 L18.6609749,0 C21.590501,0 23.973708,2.38310243 23.973708,5.3125 L23.973708,7.96875 C23.973708,8.70233154 23.3791384,9.296875 22.6455247,9.296875 C21.911911,9.296875 21.3173414,8.70233154 21.3173414,7.96875 L21.3173414,5.3125 C21.3173414,3.84793088 20.1256083,2.65625 18.6609749,2.65625 L5.31273307,2.65625 C3.84809969,2.65625 2.65636653,3.84793088 2.65636653,5.3125 L2.65636653,28.6875 C2.65636653,30.1520691 3.84809969,31.34375 5.31273307,31.34375 L18.6609749,31.34375 C20.1256083,31.34375 21.3173414,30.1520691 21.3173414,28.6875 L21.3173414,26.03125 C21.3173414,25.2976685 21.911911,24.703125 22.6455247,24.703125 C23.3791384,24.703125 23.973708,25.2976685 23.973708,26.03125 Z M33.0289606,14.7185821 L30.0548158,11.7445679 C29.5359942,11.225769 28.6949844,11.225769 28.1764222,11.7445679 C27.6576006,12.2631073 27.6576006,13.1040802 28.1764222,13.6226196 L30.2919173,15.7382812 L14.3443793,15.7382812 C13.6107656,15.7382812 13.016196,16.3328247 13.016196,17.0664062 C13.016196,17.7999878 13.6107656,18.3945312 14.3443793,18.3945312 L30.2919173,18.3945312 L28.1764222,20.5101929 C27.6576006,21.0287323 27.6576006,21.8697052 28.1764222,22.3882446 C28.435833,22.647644 28.7756612,22.7773438 29.1154893,22.7773438 C29.4555769,22.7773438 29.795405,22.647644 30.0548158,22.3882446 L33.0289606,19.4142304 C34.3236798,18.1195679 34.3236798,16.0132446 33.0289606,14.7185821 Z" id="Shape" fill="#000000" fill-rule="nonzero"></path>
            </g>
        </g>
    </g>
</svg>