<?xml version="1.0" encoding="UTF-8"?>
<svg width="203px" height="36px" viewBox="0 0 203 36" version="1.1" xmlns="http://www.w3.org/2000/svg" xmlns:xlink="http://www.w3.org/1999/xlink">
    <title>1B72088E-A761-49D4-9A3A-BFFF78D6F508</title>
    <defs>
        <filter id="filter-1">
            <feColorMatrix in="SourceGraphic" type="matrix" values="0 0 0 0 0.000000 0 0 0 0 0.521569 0 0 0 0 0.000000 0 0 0 1.000000 0"></feColorMatrix>
        </filter>
    </defs>
    <g id="BPOP---HU---Consultar-usuario-[Web-1280]" stroke="none" stroke-width="1" fill="none" fill-rule="evenodd">
        <g id="BPOP---HU---Consultar-usuario-[Web-1280]-1.0" transform="translate(-69.000000, -64.000000)">
            <g id="Logo-BPopular" transform="translate(69.000000, 64.000000)" filter="url(#filter-1)">
                <g>
                    <path d="M128.938182,13.7563636 C127.735204,13.7362611 126.551199,14.057796 125.523636,14.6836364 C125.531712,14.5929066 125.531712,14.5016389 125.523636,14.4109091 C125.523636,14.0290909 125.250909,13.8436364 124.727273,13.8436364 L123.189091,13.8436364 C122.774545,13.7781818 122.523636,13.9854545 122.425455,14.4872727 C121.356364,19.6290909 120.265455,24.7745455 119.152727,29.9236364 C119.142126,29.9996321 119.142126,30.0767316 119.152727,30.1527273 C119.152727,30.6 119.403636,30.8290909 119.883636,30.8290909 L121.367273,30.8290909 C121.806073,30.8738158 122.199538,30.5580716 122.250909,30.12 L123.363636,25.0909091 C124.187138,25.8685335 125.299472,26.2643819 126.429091,26.1818182 C128.412617,26.1866787 130.316454,25.4015912 131.72,24 C133.234622,22.6733108 134.114898,20.766048 134.141818,18.7527273 C134.174231,17.4072873 133.635142,16.1110942 132.658182,15.1854545 C131.665746,14.2204841 130.321424,13.7040435 128.938182,13.7563636 L128.938182,13.7563636 Z M129.909091,21.8181818 C129.167732,22.6491927 128.109961,23.1285568 126.996364,23.1381818 C126.369077,23.1594349 125.755789,22.9498299 125.272727,22.5490909 C124.737042,22.0979157 124.43591,21.4273946 124.454545,20.7272727 C124.458137,19.7606931 124.851444,18.8364208 125.545455,18.1636364 C126.271104,17.3377266 127.31516,16.861351 128.414545,16.8545455 C129.054399,16.8255635 129.682824,17.0311595 130.181818,17.4327273 C130.720522,17.8854206 131.018725,18.5624216 130.989091,19.2654545 C130.975936,20.2246816 130.588359,21.140772 129.909091,21.8181818 L129.909091,21.8181818 Z" id="Shape" fill="#FFFFFF" fill-rule="nonzero"></path>
                    <path d="M146.490909,15.1309091 C145.512261,14.1987811 144.197737,13.702883 142.847273,13.7563636 C140.826591,13.747437 138.887674,14.5536804 137.469091,15.9927273 C135.972217,17.3202536 135.104748,19.2175957 135.08,21.2181818 C135.034629,22.5775971 135.565522,23.8929446 136.541818,24.84 C137.540608,25.7926594 138.882569,26.300322 140.261818,26.2472727 C142.256316,26.2421957 144.164229,25.4318245 145.552727,24 C147.058679,22.65511 147.929669,20.7389328 147.952727,18.72 C147.992891,17.3711122 147.462091,16.067881 146.490909,15.1309091 L146.490909,15.1309091 Z M143.687273,21.8181818 C142.972319,22.663807 141.925457,23.1573843 140.818182,23.1709091 C140.199193,23.1903762 139.595548,22.9761796 139.127273,22.5709091 C138.589306,22.0959744 138.299657,21.4000115 138.341818,20.6836364 C138.35654,19.7289499 138.74878,18.8189546 139.432727,18.1527273 C140.148622,17.3186256 141.191721,16.8368888 142.290909,16.8327273 C142.917382,16.8042715 143.531957,17.0104263 144.014545,17.4109091 C144.554133,17.8526023 144.850092,18.525605 144.810909,19.2218182 C144.794094,20.2017341 144.39013,21.1351665 143.687273,21.8181818 Z" id="Shape" fill="#FFFFFF" fill-rule="nonzero"></path>
                    <path d="M156.745455,13.7563636 C155.539081,13.7365804 154.351662,14.0580156 153.32,14.6836364 C153.333442,14.5932242 153.333442,14.5013213 153.32,14.4109091 C153.32,14.0290909 153.058182,13.8436364 152.523636,13.8436364 L150.996364,13.8436364 C150.570909,13.7781818 150.32,13.9854545 150.232727,14.4872727 C149.156364,19.6290909 148.065455,24.7745455 146.96,29.9236364 L146.96,30.1527273 C146.96,30.6 147.210909,30.8290909 147.701818,30.8290909 L149.174545,30.8290909 C149.615595,30.8741256 150.012272,30.5596868 150.069091,30.12 L151.083636,25.1018182 C151.905689,25.8818067 153.019102,26.2780391 154.149091,26.1927273 C156.164143,26.2168944 158.103541,25.4261864 159.527273,24 C161.041895,22.6733108 161.92217,20.766048 161.949091,18.7527273 C161.9825,17.3953562 161.439473,16.0873344 160.454545,15.1527273 C159.457326,14.2057336 158.119609,13.7021228 156.745455,13.7563636 Z M157.672727,21.8509091 C156.935568,22.6813657 155.881298,23.1609395 154.770909,23.1709091 C154.140507,23.1908081 153.524261,22.9815171 153.036364,22.5818182 C152.497456,22.1114047 152.203962,21.4198857 152.24,20.7054545 C152.248467,19.7398851 152.641008,18.8174157 153.330909,18.1418182 C154.059933,17.3142233 155.10802,16.8378201 156.210909,16.8327273 C156.847339,16.8044078 157.472115,17.0100795 157.967273,17.4109091 C158.505977,17.8636025 158.80418,18.5406034 158.774545,19.2436364 C158.761308,20.2135709 158.36527,21.1389669 157.672727,21.8181818 L157.672727,21.8509091 Z" id="Shape" fill="#FFFFFF" fill-rule="nonzero"></path>
                    <path d="M175.192727,14.4981818 C175.192727,14.1272727 174.941818,13.9418182 174.418182,13.9418182 L172.781818,13.9418182 C172.356364,13.8654545 172.105455,14.0836364 172.029091,14.5745455 L170.654545,20.8909091 C170.55277,21.5308357 170.228225,22.114245 169.738182,22.5381818 C169.216306,22.9577783 168.564099,23.1816127 167.894545,23.1709091 C167.436831,23.1853354 166.989964,23.0299033 166.64,22.7345455 C166.232529,22.3661358 166.015591,21.8318253 166.050909,21.2836364 C166.032518,21.1424144 166.032518,20.9994037 166.050909,20.8581818 C166.498182,18.8181818 166.934545,16.7781818 167.381818,14.7272727 C167.391637,14.6512247 167.391637,14.5742298 167.381818,14.4981818 C167.381818,14.1272727 167.130909,13.9418182 166.607273,13.9418182 L164.981818,13.9418182 C164.567273,13.8654545 164.316364,14.0836364 164.229091,14.5745455 L162.854545,20.9345455 C162.767875,21.3360511 162.723994,21.7456103 162.723636,22.1563636 C162.669313,23.4641107 163.302262,24.705186 164.392727,25.4290909 C165.2326,25.9714295 166.219155,26.2418751 167.218182,26.2036364 C168.154511,26.2571191 169.078043,25.9660902 169.814545,25.3854545 C169.814545,25.8109091 170.087273,26.0181818 170.6,26.0181818 L171.952727,26.0181818 C172.164751,26.045754 172.378853,25.9857005 172.545608,25.8518841 C172.712364,25.7180677 172.817362,25.522054 172.836364,25.3090909 C173.578182,21.7963636 174.330909,18.2945455 175.072727,14.7927273 C175.118378,14.6969435 175.158445,14.5985972 175.192727,14.4981818 Z" id="Path" fill="#FFFFFF" fill-rule="nonzero"></path>
                    <path d="M180.789091,9.75272727 C180.789091,9.37090909 180.549091,9.17454545 180.047273,9.17454545 L178.421818,9.17454545 C177.996364,9.10909091 177.745455,9.31636364 177.647273,9.81818182 C176.556364,14.9090909 175.465455,20.0254545 174.374545,25.1672727 C174.363944,25.2432684 174.363944,25.3203679 174.374545,25.3963636 C174.374545,25.8436364 174.647273,26.0618182 175.192727,26.0618182 L176.687273,26.0618182 C176.898729,26.0862774 177.111177,26.0250623 177.277197,25.8918359 C177.443218,25.7586095 177.548991,25.5644623 177.570909,25.3527273 C178.64,20.2618182 179.705455,15.1709091 180.767273,10.08 C180.785344,9.97189825 180.792652,9.86227116 180.789091,9.75272727 L180.789091,9.75272727 Z" id="Path" fill="#FFFFFF" fill-rule="nonzero"></path>
                    <path d="M193.672727,14.4218182 C193.672727,14.04 193.410909,13.8436364 192.887273,13.8436364 L191.425455,13.8436364 C191,13.7781818 190.749091,13.9854545 190.661818,14.4872727 C190.656534,14.5853834 190.656534,14.6837075 190.661818,14.7818182 C189.779979,14.0507374 188.652277,13.6839417 187.509091,13.7563636 C185.510223,13.7663128 183.599438,14.5801657 182.207273,16.0145455 C180.710811,17.3341928 179.839556,19.2232324 179.807273,21.2181818 C179.743451,22.5605821 180.241494,23.8689332 181.181818,24.8290909 C182.177451,25.7878932 183.520582,26.2999375 184.901818,26.2472727 C186.194788,26.2805974 187.460584,25.8727726 188.490909,25.0909091 L188.381818,25.1890909 C188.373942,25.2688971 188.373942,25.3492848 188.381818,25.4290909 C188.381818,25.8763636 188.654545,26.0945455 189.178182,26.0945455 L190.52,26.0945455 C190.96105,26.1395802 191.357726,25.8251414 191.414545,25.3854545 C192.156364,21.84 192.909091,18.3054545 193.661818,14.76 C193.650909,14.5854545 193.661818,14.4872727 193.672727,14.4218182 Z M188.36,21.8181818 C187.623675,22.6497684 186.568874,23.1295839 185.458182,23.1381818 C184.827779,23.1580808 184.211534,22.9487898 183.723636,22.5490909 C183.188368,22.0722309 182.899288,21.3776361 182.938182,20.6618182 C182.942232,19.6985172 183.3357,18.7778018 184.029091,18.1090909 C184.758115,17.2814961 185.806202,16.8050928 186.909091,16.8 C187.545521,16.7716805 188.170297,16.9773522 188.665455,17.3781818 C189.202418,17.8274729 189.500609,18.5004183 189.472727,19.2 C189.46697,20.1864354 189.066196,21.1294332 188.36,21.8181818 Z" id="Shape" fill="#FFFFFF" fill-rule="nonzero"></path>
                    <path d="M201.494545,13.6581818 L200.905455,13.6581818 C199.963655,13.5921054 199.025828,13.8332609 198.232727,14.3454545 C198.232727,14.0072727 197.938182,13.8436364 197.425455,13.8436364 L195.909091,13.8436364 C195.483636,13.7781818 195.232727,13.9854545 195.134545,14.4872727 C194.407273,18.0436364 193.647273,21.6 192.854545,25.1563636 C192.845151,25.2360879 192.845151,25.3166394 192.854545,25.3963636 C192.854545,25.8436364 193.116364,26.0618182 193.661818,26.0618182 L195.134545,26.0618182 C195.346002,26.0862774 195.558449,26.0250623 195.72447,25.8918359 C195.89049,25.7586095 195.996264,25.5644623 196.018182,25.3527273 L197.36,19.0254545 C197.651296,17.5677588 199.014957,16.5794612 200.490909,16.7563636 L201.058182,16.7563636 C201.271357,16.780737 201.485348,16.7180581 201.651686,16.5825237 C201.818024,16.4469893 201.922632,16.2500683 201.941818,16.0363636 L202.236364,14.5090909 C202.245741,14.4220701 202.245741,14.3342935 202.236364,14.2472727 C202.243636,13.8545455 201.996364,13.6581818 201.494545,13.6581818 Z" id="Path" fill="#FFFFFF" fill-rule="nonzero"></path>
                    <path d="M109.181818,13.6363636 C107.163327,13.6331368 105.228662,14.4432927 103.814545,15.8836364 C102.311381,17.207532 101.439343,19.1061957 101.414545,21.1090909 C101.369174,22.4685062 101.900067,23.7838537 102.876364,24.7309091 C103.87664,25.7067396 105.23253,26.2309648 106.629091,26.1818182 C108.631931,26.1698616 110.544565,25.3473504 111.930909,23.9018182 C113.434078,22.5594815 114.304802,20.6478459 114.330909,18.6327273 C114.366145,17.2889505 113.831124,15.9930106 112.858182,15.0654545 C111.881289,14.1039601 110.551622,13.5870867 109.181818,13.6363636 L109.181818,13.6363636 Z M110.021818,21.7309091 C109.301034,22.5660804 108.255869,23.0509097 107.152727,23.0618182 C106.534404,23.0770657 105.932236,22.8633933 105.461818,22.4618182 C104.931912,21.9819516 104.647241,21.2883173 104.687273,20.5745455 C104.703178,19.620113 105.095231,18.7105493 105.778182,18.0436364 C106.49585,17.2118853 107.537815,16.7306724 108.636364,16.7236364 C109.263134,16.6930439 109.878463,16.8994516 110.36,17.3018182 C110.896592,17.7466696 111.195089,18.4162721 111.167273,19.1127273 C111.157897,20.0984111 110.757689,21.0400766 110.054545,21.7309091 L110.021818,21.7309091 Z" id="Shape" fill="#FFFFFF" fill-rule="nonzero"></path>
                    <path d="M96.0909091,13.6363636 C94.0905987,13.6441973 92.1769344,14.4536733 90.7781818,15.8836364 C89.2813081,17.2111627 88.4138386,19.1085048 88.3890909,21.1090909 C88.3437194,22.4685062 88.8746127,23.7838537 89.8509091,24.7309091 C90.846572,25.7001042 92.192959,26.2236991 93.5818182,26.1818182 C95.5129572,26.1648833 97.3578958,25.379803 98.7090909,24 C99.3527273,23.3890909 99.68,22.9090909 99.68,22.6472727 C99.68,22.3854545 99.5163636,22.2109091 99.2,22.0690909 L98.1090909,21.5018182 C97.9736237,21.4317554 97.8249709,21.3908759 97.6727273,21.3818182 C97.4118468,21.3907221 97.1682519,21.5145162 97.0072727,21.72 C96.3194963,22.5688916 95.2852717,23.0619521 94.1927273,23.0618182 C93.5701822,23.082974 92.9625302,22.8687377 92.4909091,22.4618182 C91.947527,21.9899884 91.653428,21.2930138 91.6945455,20.5745455 C91.7080762,19.6196039 92.1005035,18.7091726 92.7854545,18.0436364 C93.5233958,17.201735 94.5895622,16.7203688 95.7090909,16.7236364 C96.4607237,16.6813085 97.196004,16.9540738 97.7381818,17.4763636 C97.9181318,17.6788973 98.1670075,17.8072238 98.4363636,17.8363636 C98.6133186,17.8262943 98.7836808,17.7657211 98.9272727,17.6618182 L100.247273,16.8327273 C100.500032,16.705314 100.663158,16.4501682 100.672727,16.1672727 C100.608193,15.8718134 100.45159,15.6044436 100.225455,15.4036364 C99.1948462,14.2066998 97.6682664,13.5541776 96.0909091,13.6363636 Z" id="Path" fill="#FFFFFF" fill-rule="nonzero"></path>
                    <path d="M85.9672727,14.4 C85.1163092,13.8655161 84.1242153,13.5994372 83.12,13.6363636 C82.2220789,13.6005193 81.3315454,13.8118323 80.5454545,14.2472727 C80.5454545,13.9090909 80.2618182,13.7345455 79.7818182,13.7345455 L78.32,13.7345455 C77.8945455,13.6581818 77.6327273,13.8763636 77.5454545,14.3781818 C76.7818182,17.9345455 76.0218182,21.5054545 75.2654545,25.0909091 C75.2566278,25.1706656 75.2566278,25.2511526 75.2654545,25.3309091 C75.2654545,25.7781818 75.5381818,25.9963636 76.0727273,25.9963636 L77.5454545,25.9963636 C77.9822555,26.047554 78.3778596,25.734978 78.4290909,25.2981818 C78.8654545,23.2363636 79.3127273,21.1854545 79.7490909,19.1345455 C79.8569211,18.4345805 80.2227145,17.8002791 80.7745455,17.3563636 C81.2784273,16.9627289 81.9025318,16.754694 82.5418182,16.7672727 C83.0924732,16.7597009 83.6170019,17.0016203 83.9687217,17.4253791 C84.3204415,17.8491379 84.4616017,18.4092533 84.3527273,18.9490909 C83.9163636,20.9854545 83.4727273,23.0218182 83.0218182,25.0581818 C83.0169643,25.1308281 83.0169643,25.2037174 83.0218182,25.2763636 C83.0218182,25.7236364 83.2836364,25.9527273 83.8181818,25.9527273 L85.3127273,25.9527273 C85.7555411,26.0038756 86.1560031,25.6864362 86.2072727,25.2436364 L87.5490909,18.8509091 C87.6352015,18.4493136 87.6790765,18.0398136 87.68,17.6290909 C87.7203024,16.3255827 87.0690497,15.0977432 85.9672727,14.4 Z" id="Path" fill="#FFFFFF" fill-rule="nonzero"></path>
                    <path d="M76.0727273,14.3127273 C76.0727273,13.9309091 75.8109091,13.7345455 75.2872727,13.7345455 L73.8254545,13.7345455 C73.4109091,13.6581818 73.1490909,13.8763636 73.0618182,14.3781818 L73.0618182,14.6727273 C72.1805132,13.9396871 71.05344,13.5691959 69.9090909,13.6363636 C67.9040648,13.6425171 65.9871815,14.461227 64.5963636,15.9054545 C63.1017226,17.2254086 62.2340723,19.1152223 62.2072727,21.1090909 C62.1636382,22.4649973 62.6945001,23.7763056 63.6690909,24.72 C64.6488415,25.687519 65.9798133,26.2151824 67.3563636,26.1818182 C68.638341,26.1958623 69.8875495,25.776897 70.9018182,24.9927273 L70.7927273,25.0909091 C70.7839005,25.1706656 70.7839005,25.2511526 70.7927273,25.3309091 C70.7927273,25.7781818 71.0545455,25.9963636 71.5890909,25.9963636 L72.92,25.9963636 C73.3628138,26.0475119 73.7632759,25.7300725 73.8145455,25.2872727 C74.5672727,21.7418182 75.3090909,18.2072727 76.0618182,14.6618182 C76.0726222,14.5457891 76.0762655,14.4292045 76.0727273,14.3127273 L76.0727273,14.3127273 Z M70.76,21.7418182 C70.0253629,22.5756855 68.9694839,23.0559913 67.8581818,23.0618182 C67.2311979,23.0810492 66.6186051,22.8716821 66.1345455,22.4727273 C65.5992767,21.9958673 65.3101968,21.3012725 65.3490909,20.5854545 C65.356831,19.6229208 65.7497139,18.7035747 66.44,18.0327273 C67.1690241,17.2051324 68.2171113,16.7287292 69.32,16.7236364 C69.95643,16.6953169 70.5812063,16.9009886 71.0763636,17.3018182 C71.6232471,17.7435692 71.9237677,18.421771 71.8836364,19.1236364 C71.8750106,20.1116616 71.4702089,21.054889 70.76,21.7418182 L70.76,21.7418182 Z" id="Shape" fill="#FFFFFF" fill-rule="nonzero"></path>
                    <path d="M56.1090909,13.6363636 C54.8962847,13.6133744 53.7040021,13.9513144 52.6836364,14.6072727 L53.7745455,9.97090909 C53.7745455,9.81818182 53.7745455,9.70909091 53.7745455,9.64363636 C53.7745455,9.26181818 53.5236364,9.06545455 53.0327273,9.06545455 L51.3636364,9.06545455 C50.9490909,9 50.7090909,9.21818182 50.6109091,9.70909091 C49.52,14.8254545 48.4290909,19.9418182 47.3381818,25.0581818 C47.3337967,25.1344825 47.3337967,25.210972 47.3381818,25.2872727 C47.3381818,25.7345455 47.6,25.9527273 48.1236364,25.9527273 L49.5309091,25.9527273 C49.7453302,25.980383 49.9615516,25.917162 50.1272989,25.7783487 C50.2930461,25.6395354 50.3932324,25.437765 50.4036364,25.2218182 C50.4036364,25.1454545 50.4036364,25.0690909 50.4036364,24.9927273 C51.2502642,25.7924786 52.381463,26.2206059 53.5454545,26.1818182 C55.5568463,26.1651021 57.4778769,25.3440481 58.88,23.9018182 C60.4009408,22.5788129 61.2858053,20.670204 61.3127273,18.6545455 C61.3409442,17.3076995 60.7980089,16.0117883 59.8181818,15.0872727 C58.8285327,14.1225192 57.4906741,13.5991803 56.1090909,13.6363636 Z M57.0472727,21.7418182 C56.2883983,22.5739851 55.2170982,23.0523146 54.0909091,23.0618182 C53.4572311,23.0814047 52.8376658,22.8723015 52.3454545,22.4727273 C51.7997703,22.0064329 51.5015199,21.3132023 51.5381818,20.5963636 C51.5367561,19.628758 51.9308625,18.7026078 52.6290909,18.0327273 C53.3707563,17.2035049 54.4293163,16.7277476 55.5418182,16.7236364 C56.1887938,16.6912966 56.8252195,16.8969708 57.3309091,17.3018182 C57.8750553,17.7513003 58.1777539,18.429345 58.1490909,19.1345455 C58.148193,20.1166082 57.7509045,21.0567266 57.0472727,21.7418182 L57.0472727,21.7418182 Z" id="Shape" fill="#FFFFFF" fill-rule="nonzero"></path>
                    <path d="M18.2981818,-5.5681071e-06 L41.5454545,-5.5681071e-06 C42.5533733,0.00153069236 43.5070041,0.456915419 44.141794,1.23982303 C44.776584,2.02273065 45.02502,3.04989488 44.8181818,4.03636364 C42.7527273,13.6145455 40.7054545,23.1781818 38.6763636,32.7272727 C38.3470786,34.2721106 36.9831777,35.3768703 35.4036364,35.3781818 L10.6509091,35.3781818 L10.8145455,34.6145455 C11.1745455,32.9454545 11.5345455,31.2654545 11.9054545,29.5963636 C14.1583256,31.3570182 16.9446333,32.2960501 19.8036364,32.2581818 C24.4723894,32.2144316 28.9255555,30.2868244 32.1527273,26.9127273 C33.510067,25.6271464 34.6813627,24.158437 35.6327273,22.5490909 C35.8123302,22.2380147 35.8119927,21.8546717 35.6318423,21.5439122 C35.4516919,21.2331528 35.1191991,21.0423636 34.76,21.0436364 L30.3963636,21.0436364 C30.0765988,21.045325 29.7767771,21.1992874 29.5890909,21.4581818 C29.2839419,21.865357 28.9561524,22.2550623 28.6072727,22.6254545 C26.7078383,24.7804732 23.9744393,26.0160649 21.1018182,26.0181818 C19.4198214,26.1086194 17.7640249,25.5722346 16.4545455,24.5127273 C15.6229036,23.7972688 15.0071362,22.8641734 14.6763636,21.8181818 C14.5335707,21.4093766 14.1493762,21.1343282 13.7163636,21.1309091 L8.36,21.1309091 C7.88565819,21.130995 7.47614371,21.4631568 7.37818182,21.9272727 C6.48363636,26.16 5.58181818,30.4 4.67272727,34.6472727 C4.67272727,34.8981818 4.57454545,35.1490909 4.52,35.4109196 L3.42909091,35.4109196 C2.41974578,35.4134419 1.46345193,34.9591483 0.827762393,34.1751312 C0.192072853,33.3911141 -0.0547450696,32.3615698 0.156363636,31.3745455 C2.19272727,21.7963636 4.22909091,12.2218182 6.26545455,2.65090909 C6.59095683,1.10375545 7.95716066,-0.00286965258 9.53818182,-5.5681071e-06 L12.0909091,-5.5681071e-06 C12.0909091,-5.5681071e-06 12.0909091,0.0545454545 12.0909091,0.0763636364 C12.0909091,0.36 11.9818182,0.632727273 11.9163636,0.916363636 C10.8690909,5.57818182 9.85454545,10.2327273 8.87272727,14.88 C8.8077425,15.185583 8.88876751,15.5040003 9.09190922,15.7413553 C9.29505094,15.9787104 9.59713856,16.10793 9.90909091,16.0909091 L14.3927273,16.0909091 C14.7792449,16.0942188 15.1325395,15.8728776 15.2981818,15.5236364 C15.7877644,14.5201604 16.4319847,13.5998457 17.2072727,12.7963636 C19.0701907,10.6380381 21.7744033,9.38932813 24.6254545,9.37090909 C26.3057084,9.30862947 27.9519994,9.85481074 29.2618182,10.9090909 C30.5303287,11.9725488 31.3168223,13.5022789 31.4436364,15.1527273 C31.4943156,15.6683585 31.9291629,16.0606664 32.4472727,16.0581818 L36.8109091,16.0581818 C37.3567922,16.0583108 37.8026784,15.6221178 37.8145455,15.0763636 L37.8145455,14.7163636 C37.9102543,11.5935958 36.6913128,8.57394509 34.4545455,6.39272727 C32.1817402,4.19624879 29.1153525,3.01535495 25.9563636,3.12 C22.7848321,3.18238295 19.6953799,4.13909213 17.0436364,5.88 L18.1345455,0.872727273 C18.2,0.589090909 18.2654545,0.316363636 18.32,0.0327272727 C18.2872727,0.0545454545 18.2872727,-5.5681071e-06 18.2981818,-5.5681071e-06 Z" id="Path" fill="#FFFFFF" fill-rule="nonzero"></path>
                </g>
            </g>
        </g>
    </g>
</svg>