<svg width="24" height="24" viewBox="0 0 24 24" fill="none" xmlns="http://www.w3.org/2000/svg">
<path fill-rule="evenodd" clip-rule="evenodd" d="M15.4919 3.63843C15.6556 3.63842 15.812 3.70584 15.9244 3.8248L20.1413 8.28767C20.358 8.51701 20.358 8.87564 20.1413 9.105L8.11859 21.8301L7.68606 21.4215L7.87031 21.9873L1.77932 23.9708C1.56966 24.039 1.33944 23.9858 1.18106 23.8324C1.02269 23.679 0.96212 23.4506 1.02367 23.2388L2.89783 16.7925C2.9242 16.7017 2.9718 16.6186 3.03668 16.5499L15.0594 3.82482C15.1718 3.70585 15.3282 3.63843 15.4919 3.63843ZM7.35765 20.9026L18.8901 8.69636L15.4919 5.09992L4.00047 17.2627L2.48052 22.4908L7.35765 20.9026Z" fill="black"/>
<path fill-rule="evenodd" clip-rule="evenodd" d="M18.8153 1.58243C18.8151 1.58268 18.8148 1.58292 18.8146 1.58317L15.9243 4.64214C15.6986 4.88101 15.322 4.89168 15.0831 4.66598C14.8442 4.44028 14.8336 4.06367 15.0593 3.82479L17.9511 0.764261L17.9525 0.762695C18.9204 -0.254232 20.4968 -0.254232 21.4646 0.762695L21.4661 0.764259L23.0329 2.42246L23.033 2.42253C23.9812 3.42642 23.9812 5.04051 23.033 6.0444L23.0329 6.04447L20.1411 9.105C19.9154 9.34387 19.5388 9.35455 19.2999 9.12885C19.061 8.90314 19.0504 8.52653 19.2761 8.28766L22.1678 5.22719C22.6828 4.68197 22.6828 3.78496 22.1678 3.23974L20.6026 1.58317C20.6023 1.58292 20.6021 1.58268 20.6019 1.58243C20.1033 1.05932 19.3139 1.05932 18.8153 1.58243Z" fill="black"/>
<path fill-rule="evenodd" clip-rule="evenodd" d="M18.0089 6.03239C18.2477 6.25808 18.2584 6.6347 18.0327 6.87358L7.18139 18.359C6.9557 18.5979 6.57909 18.6086 6.3402 18.3829C6.10132 18.1572 6.09063 17.7806 6.31633 17.5417L17.1677 6.05627C17.3934 5.81739 17.77 5.8067 18.0089 6.03239Z" fill="black"/>
<path fill-rule="evenodd" clip-rule="evenodd" d="M3.0604 16.5261C3.29928 16.3004 3.67589 16.311 3.90159 16.5499L4.66255 17.3553H6.74878C7.07742 17.3553 7.34383 17.6217 7.34383 17.9503V20.193L8.11836 21.0128C8.34406 21.2516 8.33338 21.6283 8.09451 21.854C7.85564 22.0797 7.47902 22.069 7.25332 21.8301L6.31626 20.8384C6.21188 20.7279 6.15373 20.5817 6.15373 20.4297V18.5454H4.40613C4.24246 18.5454 4.08602 18.478 3.97361 18.359L3.03655 17.3672C2.81085 17.1284 2.82153 16.7518 3.0604 16.5261Z" fill="black"/>
<path fill-rule="evenodd" clip-rule="evenodd" d="M2.12339 19.9972C2.36227 19.7715 2.73888 19.7822 2.96458 20.021L4.83871 22.0045C5.06441 22.2434 5.05373 22.62 4.81486 22.8457C4.57598 23.0714 4.19937 23.0607 3.97367 22.8219L2.09954 20.8384C1.87384 20.5995 1.88452 20.2229 2.12339 19.9972Z" fill="black"/>
<path fill-rule="evenodd" clip-rule="evenodd" d="M16.4889 2.31335C16.7277 2.08765 17.1044 2.09833 17.3301 2.3372L21.5468 6.80006C21.7725 7.03894 21.7618 7.41555 21.523 7.64125C21.2841 7.86695 20.9075 7.85627 20.6818 7.6174L16.465 3.15454C16.2393 2.91566 16.25 2.53905 16.4889 2.31335Z" fill="black"/>
</svg>
