<?xml version="1.0" encoding="UTF-8"?>
<svg width="25px" height="25px" viewBox="0 0 25 25" version="1.1" xmlns="http://www.w3.org/2000/svg" xmlns:xlink="http://www.w3.org/1999/xlink">
    <title>0E412B86-6B65-4F43-A4A5-A427CAA610AE</title>
    <defs>
        <filter id="filter-1">
            <feColorMatrix in="SourceGraphic" type="matrix" values="0 0 0 0 1.000000 0 0 0 0 1.000000 0 0 0 0 1.000000 0 0 0 1.000000 0"></feColorMatrix>
        </filter>
    </defs>
    <g id="BPOP---HU---Administrar-perfiles-[Web-1280]" stroke="none" stroke-width="1" fill="none" fill-rule="evenodd">
        <g id="BPOP---HU---Administrar-perfiles-[Web-1280]-2.2" transform="translate(-1161.000000, -315.000000)">
            <g id="plus-circle" transform="translate(957.000000, 303.000000)" filter="url(#filter-1)">
                <g transform="translate(204.000000, 12.000000)">
                    <path d="M13.0952381,11.9047619 L17.2619048,11.9047619 C17.5906457,11.9047619 17.8571429,12.171259 17.8571429,12.5 C17.8571429,12.828741 17.5906457,13.0952381 17.2619048,13.0952381 L13.0952381,13.0952381 L13.0952381,17.2619048 C13.0952381,17.5906457 12.828741,17.8571429 12.5,17.8571429 C12.171259,17.8571429 11.9047619,17.5906457 11.9047619,17.2619048 L11.9047619,13.0952381 L7.73809524,13.0952381 C7.40935432,13.0952381 7.14285714,12.828741 7.14285714,12.5 C7.14285714,12.171259 7.40935432,11.9047619 7.73809524,11.9047619 L11.9047619,11.9047619 L11.9047619,7.73809524 C11.9047619,7.40935432 12.171259,7.14285714 12.5,7.14285714 C12.828741,7.14285714 13.0952381,7.40935432 13.0952381,7.73809524 L13.0952381,11.9047619 Z M12.5,25 C5.59644063,25 0,19.4035594 0,12.5 C0,5.59644063 5.59644063,0 12.5,0 C19.4035594,0 25,5.59644063 25,12.5 C25,19.4035594 19.4035594,25 12.5,25 Z M12.5,23.8095238 C18.7460775,23.8095238 23.8095238,18.7460775 23.8095238,12.5 C23.8095238,6.25392248 18.7460775,1.19047619 12.5,1.19047619 C6.25392248,1.19047619 1.19047619,6.25392248 1.19047619,12.5 C1.19047619,18.7460775 6.25392248,23.8095238 12.5,23.8095238 Z" id="Shape" fill="#000000" fill-rule="nonzero"></path>
                </g>
            </g>
        </g>
    </g>
</svg>
