<?xml version="1.0" encoding="UTF-8"?>
<svg width="306px" height="181px" viewBox="0 0 306 181" version="1.1" xmlns="http://www.w3.org/2000/svg" xmlns:xlink="http://www.w3.org/1999/xlink">
    <title>50AB64C1-FC2F-4414-8F17-0ABE0BB92A6C</title>
    <g id="BPOP---HU---Consultar-usuario-[Web-1280]" stroke="none" stroke-width="1" fill="none" fill-rule="evenodd">
        <g id="BPOP---HU---Consultar-usuario-[Web-1280]-1.0" transform="translate(0.000000, -843.000000)" fill="#008500">
            <path d="M-33.312583,861 L241.312583,861 C261.371755,861 268.645695,863.088576 275.979028,867.010486 C283.312362,870.932395 289.067605,876.687638 292.989514,884.020972 C296.911424,891.354305 299,898.628245 299,918.687417 L299,1003.31258 C299,1023.37175 296.911424,1030.64569 292.989514,1037.97903 C289.067605,1045.31236 283.312362,1051.0676 275.979028,1054.98951 C268.645695,1058.91142 261.371755,1061 241.312583,1061 L-33.312583,1061 C-53.3717546,1061 -60.645695,1058.91142 -67.9790283,1054.98951 C-75.3123617,1051.0676 -81.0676046,1045.31236 -84.9895142,1037.97903 C-88.9114237,1030.64569 -91,1023.37175 -91,1003.31258 L-91,918.687417 C-91,898.628245 -88.9114237,891.354305 -84.9895142,884.020972 C-81.0676046,876.687638 -75.3123617,870.932395 -67.9790283,867.010486 C-60.645695,863.088576 -53.3717546,861 -33.312583,861 Z" id="Rectangle" transform="translate(104.000000, 961.000000) rotate(9.000000) translate(-104.000000, -961.000000) "></path>
        </g>
    </g>
</svg>